HIERARCHY
ROOT Hips
{
 OFFSET 0.000000 0.000000 0.000000
 CHANNELS 6 Xposition Yposition Zposition Yrotation Xrotation Zrotation
 JOINT Chest
 {
  OFFSET 0.000000 9.910571 -0.011835
  CHANNELS 3 Yrotation Xrotation Zrotation
  JOINT Chest2
  {
   OFFSET 0.000000 10.789473 0.021497
   CHANNELS 3 Yrotation Xrotation Zrotation
   JOINT Chest3
   {
    OFFSET 0.000000 9.748205 0.000000
    CHANNELS 3 Yrotation Xrotation Zrotation
    JOINT Chest4
    {
     OFFSET 0.000000 9.748205 0.000000
     CHANNELS 3 Yrotation Xrotation Zrotation
     JOINT Neck
     {
      OFFSET 0.000000 13.998479 0.000000
      CHANNELS 3 Yrotation Xrotation Zrotation
      JOINT Head
      {
       OFFSET 0.000000 9.082285 0.051121
       CHANNELS 3 Yrotation Xrotation Zrotation
       End Site
       {
        OFFSET 0.000000 17.246134 0.026702
       }
      }
     }
     JOINT RightCollar
     {
      OFFSET -3.284495 7.824262 0.000000
      CHANNELS 3 Yrotation Xrotation Zrotation
      JOINT RightShoulder
      {
       OFFSET -15.534540 0.000000 0.000000
       CHANNELS 3 Yrotation Xrotation Zrotation
       JOINT RightElbow
       {
        OFFSET 0.000000 -28.251216 0.000000
        CHANNELS 3 Yrotation Xrotation Zrotation
        JOINT RightWrist
        {
         OFFSET 0.000000 -23.418114 0.012537
         CHANNELS 3 Yrotation Xrotation Zrotation
         End Site
         {
          OFFSET 0.000000 -17.723959 0.000000
         }
        }
       }
      }
     }
     JOINT LeftCollar
     {
      OFFSET 3.284495 7.824262 0.000000
      CHANNELS 3 Yrotation Xrotation Zrotation
      JOINT LeftShoulder
      {
       OFFSET 15.534540 0.000000 0.000000
       CHANNELS 3 Yrotation Xrotation Zrotation
       JOINT LeftElbow
       {
        OFFSET 0.000000 -28.251216 0.000000
        CHANNELS 3 Yrotation Xrotation Zrotation
        JOINT LeftWrist
        {
         OFFSET 0.000000 -23.418114 0.012537
         CHANNELS 3 Yrotation Xrotation Zrotation
         End Site
         {
          OFFSET 0.000000 -17.723959 0.000000
         }
        }
       }
      }
     }
    }
   }
  }
 }
 JOINT RightHip
 {
  OFFSET -8.142657 0.057990 0.005917
  CHANNELS 3 Yrotation Xrotation Zrotation
  JOINT RightKnee
  {
   OFFSET 0.000000 -49.716894 0.008478
   CHANNELS 3 Yrotation Xrotation Zrotation
   JOINT RightAnkle
   {
    OFFSET 0.000000 -43.994153 0.004166
    CHANNELS 3 Yrotation Xrotation Zrotation
    JOINT RightToe
    {
     OFFSET 0.000000 -7.619154 17.822051
     CHANNELS 3 Yrotation Xrotation Zrotation
     End Site
     {
      OFFSET 0.000000 -1.595627 7.159905
     }
    }
   }
  }
 }
 JOINT LeftHip
 {
  OFFSET 8.142657 0.057990 0.005917
  CHANNELS 3 Yrotation Xrotation Zrotation
  JOINT LeftKnee
  {
   OFFSET 0.000000 -49.716894 0.008478
   CHANNELS 3 Yrotation Xrotation Zrotation
   JOINT LeftAnkle
   {
    OFFSET 0.000000 -43.994153 0.004166
    CHANNELS 3 Yrotation Xrotation Zrotation
    JOINT LeftToe
    {
     OFFSET 0.000000 -7.619154 17.822051
     CHANNELS 3 Yrotation Xrotation Zrotation
     End Site
     {
      OFFSET 0.000000 -1.595627 7.159905
     }
    }
   }
  }
 }
}
MOTION
Frames: 10
Frame Time: 0.008333
244.294276 56.080626 252.088755 -63.439765 -57.583304 4.206669 -0.789258 23.307167 -1.104504 -0.184631 10.353936 -0.546731 -0.184631 10.353936 -0.546731 -0.128741 7.765624 -0.405765 -1.827558 18.870026 -0.670658 -3.133944 -1.138149 -0.640431 0.013525 10.356208 11.723372 16.484004 -22.223839 -20.503887 -16.421273 -37.976238 45.067491 -2.914445 -10.326415 5.409450 1.232670 9.564980 -10.147302 -9.574015 -20.940437 18.094830 11.646032 -49.210964 -32.106860 -8.534318 -6.245797 -11.626449 -8.232658 -30.029427 -6.384988 -99.262283 73.498671 -115.731474 -4.041649 -6.177321 6.218088 -0.004955 0.409468 0.002193 4.338616 -29.443828 18.632013 129.926287 79.377450 136.228510 4.596406 -6.789369 -5.497297 -0.057097 -0.354272 -0.024366
244.292498 56.080230 252.087419 -63.443744 -57.582839 4.207741 -0.777611 23.304683 -1.092003 -0.182671 10.353274 -0.544501 -0.182671 10.353274 -0.544501 -0.127313 7.765126 -0.404132 -1.850061 18.863536 -0.680672 -3.172014 -1.150150 -0.651411 -0.010140 10.355015 11.722184 16.501285 -22.218403 -20.504131 -16.416813 -37.976869 45.047579 -2.918383 -10.317379 5.403332 1.219123 9.567612 -10.151357 -9.582478 -20.938850 18.092477 11.638119 -49.207614 -32.092908 -8.531793 -6.234020 -11.626944 -8.229284 -30.029821 -6.371421 -99.263406 73.491391 -115.733984 -4.060301 -6.171312 6.215843 0.003996 0.406592 0.008133 4.336733 -29.441417 18.642380 129.898871 79.375496 136.196928 4.578383 -6.792504 -5.495982 -0.052958 -0.350451 -0.022870
244.290822 56.078803 252.084720 -63.438750 -57.577427 4.202300 -0.782229 23.304222 -1.083149 -0.185606 10.354440 -0.543617 -0.185606 10.354440 -0.543617 -0.129523 7.766002 -0.403420 -1.869711 18.849461 -0.698397 -3.202419 -1.176427 -0.677289 -0.012696 10.347132 11.708759 16.503369 -22.216337 -20.496520 -16.404304 -37.989530 45.036494 -2.921818 -10.306042 5.392829 1.217769 9.551794 -10.162529 -9.586477 -20.937973 18.087540 11.649466 -49.190105 -32.095883 -8.538982 -6.223600 -11.625940 -8.228068 -30.035196 -6.365947 -99.274347 73.492801 -115.739043 -4.074385 -6.170818 6.210458 0.011820 0.407414 0.011194 4.330298 -29.449250 18.645566 129.903889 79.373258 136.201564 4.577741 -6.789005 -5.493283 -0.054457 -0.351731 -0.026373
244.287883 56.077997 252.082272 -63.451463 -57.573384 4.214407 -0.786979 23.306930 -1.083095 -0.188477 10.355062 -0.543261 -0.188477 10.355062 -0.543261 -0.131676 7.766471 -0.403104 -1.890375 18.832617 -0.717645 -3.234210 -1.207867 -0.705574 -0.000667 10.338741 11.696782 16.511594 -22.212398 -20.485698 -16.401142 -38.006214 45.014932 -2.930863 -10.300036 5.377677 1.235876 9.535822 -10.171048 -9.595541 -20.930755 18.084509 11.668415 -49.177590 -32.108236 -8.545849 -6.204503 -11.621929 -8.218034 -30.041139 -6.368281 -99.283561 73.492173 -115.749406 -4.060767 -6.169692 6.215715 0.001691 0.405096 0.005795 4.342032 -29.452315 18.644006 129.877845 79.368671 136.183733 4.572166 -6.792521 -5.500853 -0.047617 -0.348870 -0.023470
244.284918 56.077291 252.078453 -63.428516 -57.571557 4.178066 -0.795857 23.303939 -1.060307 -0.189785 10.354194 -0.541488 -0.189785 10.354194 -0.541488 -0.132685 7.765821 -0.401756 -1.924099 18.816600 -0.739908 -3.288966 -1.237690 -0.735186 0.003742 10.341569 11.694171 16.508247 -22.208489 -20.486872 -16.398815 -38.021939 45.012062 -2.931412 -10.296917 5.375290 1.236914 9.527883 -10.181188 -9.602726 -20.925051 18.086083 11.696508 -49.153469 -32.129808 -8.553112 -6.187323 -11.618305 -8.237556 -30.038964 -6.350994 -99.289121 73.497809 -115.750468 -4.056070 -6.195570 6.215363 -0.009879 0.429332 0.002224 4.321188 -29.457057 18.659345 129.873406 79.366883 136.180175 4.594728 -6.778652 -5.494577 -0.069753 -0.360454 -0.031949
244.285025 56.077173 252.080187 -63.429424 -57.569833 4.186470 -0.804309 23.300458 -1.067679 -0.192638 10.353191 -0.540592 -0.192638 10.353191 -0.540592 -0.134836 7.765071 -0.401038 -1.962762 18.795074 -0.764401 -3.352096 -1.277739 -0.767166 0.016987 10.344881 11.693782 16.500663 -22.202034 -20.487065 -16.397458 -38.032796 45.013273 -2.934156 -10.294141 5.370397 1.247904 9.524681 -10.192982 -9.607971 -20.919619 18.088606 11.715219 -49.137729 -32.144464 -8.560450 -6.167682 -11.614421 -8.230204 -30.045062 -6.367915 -99.310656 73.502058 -115.769718 -4.043380 -6.194081 6.216869 -0.019572 0.424945 -0.002753 4.321504 -29.454647 18.647639 129.845716 79.362302 136.149654 4.597423 -6.780913 -5.496234 -0.071269 -0.358175 -0.032835
244.285250 56.077120 252.081474 -63.435754 -57.569863 4.198400 -0.805551 23.297058 -1.068041 -0.193847 10.352446 -0.540792 -0.193847 10.352446 -0.540792 -0.135737 7.764514 -0.401167 -2.017513 18.769312 -0.793328 -3.443325 -1.325567 -0.801975 0.019058 10.348461 11.698251 16.491971 -22.189808 -20.487307 -16.403746 -38.050733 45.022792 -2.933094 -10.290304 5.373693 1.245868 9.522759 -10.193688 -9.606907 -20.926761 18.085651 11.728914 -49.105589 -32.161643 -8.563559 -6.156680 -11.601087 -8.218461 -30.048808 -6.380690 -99.335456 73.505298 -115.787463 -4.048707 -6.191999 6.212899 -0.015014 0.421803 -0.002853 4.329050 -29.452181 18.635472 129.832297 79.360946 136.137470 4.600800 -6.782755 -5.496372 -0.073614 -0.356790 -0.034111
244.287329 56.078025 252.087635 -63.456062 -57.573442 4.245613 -0.799482 23.296608 -1.089160 -0.192123 10.351224 -0.537870 -0.192123 10.351224 -0.537870 -0.134499 7.763594 -0.399011 -2.087303 18.743655 -0.826375 -3.560811 -1.373117 -0.839448 -0.000351 10.350916 11.696718 16.489262 -22.175828 -20.479744 -16.406405 -38.059609 45.024066 -2.931655 -10.286489 5.380993 1.239244 9.530274 -10.198809 -9.621274 -20.925430 18.087074 11.747876 -49.092194 -32.173865 -8.567072 -6.143267 -11.597254 -8.194842 -30.052971 -6.416560 -99.347996 73.500469 -115.804254 -4.054111 -6.171065 6.209190 -0.004101 0.398962 0.001099 4.357697 -29.439509 18.592274 129.801982 79.357685 136.108446 4.600059 -6.807088 -5.502732 -0.065720 -0.336872 -0.030505
244.286840 56.078187 252.088933 -63.464389 -57.576427 4.253274 -0.796915 23.292417 -1.085769 -0.190579 10.349736 -0.536212 -0.190579 10.349736 -0.536212 -0.133373 7.762477 -0.397798 -2.169164 18.714911 -0.865746 -3.698419 -1.426396 -0.884504 -0.011104 10.356249 11.696302 16.481389 -22.168959 -20.473975 -16.414541 -38.065864 45.038291 -2.918016 -10.280404 5.384152 1.232551 9.538178 -10.200748 -9.621310 -20.923366 18.080652 11.749853 -49.084059 -32.172758 -8.564668 -6.135255 -11.590429 -8.196498 -30.051763 -6.413752 -99.345189 73.496305 -115.809754 -4.050675 -6.170921 6.210990 -0.004547 0.398422 0.000879 4.360877 -29.432951 18.589231 129.799699 79.356333 136.104451 4.611903 -6.811905 -5.503465 -0.066144 -0.335413 -0.031570
244.284697 56.078773 252.087831 -63.464784 -57.580859 4.245775 -0.788118 23.288681 -1.071607 -0.188412 10.347619 -0.533168 -0.188412 10.347619 -0.533168 -0.131807 7.760886 -0.395560 -2.265066 18.688940 -0.911755 -3.859624 -1.474510 -0.937202 -0.030255 10.359177 11.693243 16.493153 -22.152824 -20.467048 -16.420033 -38.066538 45.039685 -2.913696 -10.268781 5.380627 1.224217 9.546433 -10.203347 -9.628291 -20.920074 18.076854 11.743141 -49.081444 -32.159266 -8.562958 -6.123017 -11.623126 -8.203901 -30.043428 -6.397131 -99.335366 73.489455 -115.801337 -4.055984 -6.175788 6.206633 0.004435 0.401773 0.004984 4.354708 -29.426526 18.601205 129.837926 79.364528 136.141993 4.621991 -6.816194 -5.505742 -0.061465 -0.333949 -0.030562
